<?xml version="1.0" encoding="utf-8"?>
<!-- Generator: Adobe Illustrator 26.0.1, SVG Export Plug-In . SVG Version: 6.00 Build 0)  -->
<svg version="1.1" id="Layer_1" xmlns="http://www.w3.org/2000/svg" xmlns:xlink="http://www.w3.org/1999/xlink" x="0px" y="0px"
	 viewBox="0 0 240 240" style="enable-background:new 0 0 240 240;" xml:space="preserve">
<style type="text/css">
	.st0{display:none;opacity:0.42;}
	.st1{display:inline;fill:none;stroke:#EADECA;stroke-miterlimit:10;}
	.st2{display:none;opacity:0.86;fill:#EADECA;enable-background:new    ;}
	.st3{opacity:0.05;}
	.st4{fill:none;stroke:#EADECA;stroke-miterlimit:10;}
</style>
<g class="st0">
	<rect class="st1" width="240" height="240"/>
	<line class="st1" x1="0" y1="200" x2="240" y2="200"/>
	<line class="st1" x1="0" y1="160" x2="240" y2="160"/>
	<line class="st1" x1="0" y1="120" x2="240" y2="120"/>
	<line class="st1" x1="0" y1="80" x2="240" y2="80"/>
	<line class="st1" x1="0" y1="40" x2="240" y2="40"/>
	<line class="st1" x1="200" y1="0" x2="200" y2="240"/>
	<line class="st1" x1="160" y1="0" x2="160" y2="240"/>
	<line class="st1" x1="120" y1="0" x2="120" y2="240"/>
	<line class="st1" x1="80" y1="0" x2="80" y2="240"/>
	<line class="st1" x1="40" y1="0" x2="40" y2="240"/>
</g>
<rect class="st2" width="240" height="240"/>
<g class="st3">
	<rect class="st4" width="240" height="240"/>
	<line class="st4" x1="0" y1="213.3" x2="240" y2="213.3"/>
	<line class="st4" x1="0" y1="186.7" x2="240" y2="186.7"/>
	<line class="st4" x1="0" y1="160" x2="240" y2="160"/>
	<line class="st4" x1="0" y1="133.3" x2="240" y2="133.3"/>
	<line class="st4" x1="0" y1="106.7" x2="240" y2="106.7"/>
	<line class="st4" x1="0" y1="80" x2="240" y2="80"/>
	<line class="st4" x1="0" y1="53.3" x2="240" y2="53.3"/>
	<line class="st4" x1="0" y1="26.7" x2="240" y2="26.7"/>
	<line class="st4" x1="213.3" y1="0" x2="213.3" y2="240"/>
	<line class="st4" x1="186.7" y1="0" x2="186.7" y2="240"/>
	<line class="st4" x1="160" y1="0" x2="160" y2="240"/>
	<line class="st4" x1="133.3" y1="0" x2="133.3" y2="240"/>
	<line class="st4" x1="106.7" y1="0" x2="106.7" y2="240"/>
	<line class="st4" x1="80" y1="0" x2="80" y2="240"/>
	<line class="st4" x1="53.3" y1="0" x2="53.3" y2="240"/>
	<line class="st4" x1="26.7" y1="0" x2="26.7" y2="240"/>
</g>
</svg>
