<?xml version="1.0" encoding="utf-8"?>
<!-- Generator: Adobe Illustrator 26.0.1, SVG Export Plug-In . SVG Version: 6.00 Build 0)  -->
<svg version="1.1" id="Layer_1" xmlns="http://www.w3.org/2000/svg" xmlns:xlink="http://www.w3.org/1999/xlink" x="0px" y="0px"
	 width="98px" height="98px" viewBox="0 0 98 98" enable-background="new 0 0 98 98" xml:space="preserve">
<g>
	<path fill="#EADECA" d="M0,89.57735C0,62.5255,0,35.47365,0,8.4218c0.05973-0.14039,0.1455-0.27549,0.17529-0.42197
		c0.4749-2.33454,1.65328-4.2335,3.47118-5.76855C5.04397,1.05123,6.7073,0.48051,8.4218,0c27.05185,0,54.1037,0,81.15555,0
		c0.10899,0.05538,0.21225,0.13771,0.32779,0.16224c4.91405,1.04335,8.08963,4.92018,8.0909,9.94484
		c0.00655,25.93084,0.006,51.86168-0.0096,77.79251c-0.00053,0.88362-0.08927,1.79178-0.30387,2.64658
		c-1.1319,4.50861-5.04952,7.45031-9.87865,7.45106c-25.86705,0.00399-51.7341,0.00192-77.60115,0.00138
		c-0.28701-0.00001-0.57471,0.00365-0.86092-0.01375c-2.74505-0.16682-5.00838-1.31485-6.85903-3.33514
		C1.15328,93.1983,0.50128,91.42772,0,89.57735z M83.24587,83.24837c0.01575-0.28635,0.03503-0.47359,0.03506-0.66084
		c0.00121-9.05835,0.04184-18.11694-0.01408-27.17495c-0.03689-5.97664-2.64256-10.71382-7.49981-14.10773
		c-5.24116-3.66216-11.73995-4.39859-17.53449-0.42217c-1.54609,1.06099-2.86757,2.44928-4.30748,3.70061
		c0-1.67593,0-3.46869,0-5.31244c-4.94937,0-9.77811,0-14.62702,0c0,14.68769,0,29.33152,0,43.96077c4.88858,0,9.69527,0,14.61224,0
		c0-0.42453,0-0.79911,0-1.17368c0-7.91016-0.00179-15.82032,0.00341-23.73049c0.00042-0.63697,0.01875-1.27681,0.07995-1.91037
		c0.41067-4.25134,5.13635-7.38342,9.2024-6.10951c3.40053,1.06541,5.3839,3.83257,5.38898,7.58525
		c0.01096,8.06963,0.00352,16.13928,0.00361,24.20892c0.00001,0.37119,0.00001,0.74237,0.00001,1.14661
		C73.53411,83.24837,78.34213,83.24837,83.24587,83.24837z M29.33934,83.24804c0-14.72636,0-29.3457,0-43.96294
		c-4.9013,0-9.73112,0-14.55735,0c0,14.68877,0,29.30867,0,43.96294C19.65468,83.24804,24.46192,83.24804,29.33934,83.24804z
		 M30.84198,22.04247c-0.00655-4.87009-3.99622-8.85487-8.82283-8.81201c-4.82802,0.04287-8.7264,3.93544-8.78844,8.77532
		c-0.06173,4.81652,3.92402,8.81927,8.79839,8.83594C26.90894,30.85841,30.84854,26.9249,30.84198,22.04247z"/>
</g>
</svg>
