{
  "accessors": [
    {
      "bufferView": 2,
      "componentType": 5126,
      "count": 3785,
      "max": [
        0.6301320791244507,
        1.7624454498291016,
        1.2912677526474
      ],
      "min": [
        -0.6301320195198059,
        -1.785854697227478,
        0.12136748433113098
      ],
      "type": "VEC3"
    },
    {
      "bufferView": 2,
      "byteOffset": 45420,
      "componentType": 5126,
      "count": 3785,
      "max": [
        0.9997727274894714,
        0.9999459981918335,
        0.9933238625526428
      ],
      "min": [
        -0.9997727274894714,
        -0.999965250492096,
        -0.9911032319068909
      ],
      "type": "VEC3"
    },
    {
      "bufferView": 1,
      "componentType": 5126,
      "count": 3785,
      "max": [
        1.0,
        1.0
      ],
      "min": [
        0.0,
        -0.046657003462314606
      ],
      "type": "VEC2"
    },
    {
      "bufferView": 0,
      "componentType": 5125,
      "count": 22038,
      "type": "SCALAR"
    },
    {
      "bufferView": 2,
      "byteOffset": 90840,
      "componentType": 5126,
      "count": 282,
      "max": [
        0.1910225749015808,
        1.740749478340149,
        0.8898538947105408
      ],
      "min": [
        -0.1910225749015808,
        1.6848772764205933,
        0.833862841129303
      ],
      "type": "VEC3"
    },
    {
      "bufferView": 2,
      "byteOffset": 94224,
      "componentType": 5126,
      "count": 282,
      "max": [
        0.9980669021606445,
        0.9895245432853699,
        0.9896642565727234
      ],
      "min": [
        -0.9980671405792236,
        -0.9895248413085938,
        -0.9896639585494995
      ],
      "type": "VEC3"
    },
    {
      "bufferView": 1,
      "byteOffset": 30280,
      "componentType": 5126,
      "count": 282,
      "max": [
        0.9999998807907104,
        1.0
      ],
      "min": [
        0.0,
        0.0
      ],
      "type": "VEC2"
    },
    {
      "bufferView": 0,
      "byteOffset": 88152,
      "componentType": 5125,
      "count": 1296,
      "type": "SCALAR"
    },
    {
      "bufferView": 2,
      "byteOffset": 97608,
      "componentType": 5126,
      "count": 16932,
      "max": [
        0.7090015411376953,
        1.8842661380767822,
        0.9980754256248474
      ],
      "min": [
        -0.7090014815330505,
        -1.1879884004592896,
        -1.2712562084197998
      ],
      "type": "VEC3"
    },
    {
      "bufferView": 2,
      "byteOffset": 300792,
      "componentType": 5126,
      "count": 16932,
      "max": [
        0.9997682571411133,
        0.9989159107208252,
        0.9999443292617798
      ],
      "min": [
        -0.9997681975364685,
        -0.9998746514320374,
        -0.9999992251396179
      ],
      "type": "VEC3"
    },
    {
      "bufferView": 1,
      "byteOffset": 32536,
      "componentType": 5126,
      "count": 16932,
      "max": [
        1.0,
        1.0
      ],
      "min": [
        0.0,
        -0.12441867589950562
      ],
      "type": "VEC2"
    },
    {
      "bufferView": 0,
      "byteOffset": 93336,
      "componentType": 5125,
      "count": 97134,
      "type": "SCALAR"
    }
  ],
  "asset": {
    "extras": {
      "author": "Dmitry_Nzh (https://sketchfab.com/Dmitry_Nzh)",
      "license": "CC-BY-4.0 (http://creativecommons.org/licenses/by/4.0/)",
      "source": "https://sketchfab.com/3d-models/the-duck-5e8f06f854634271b3a251217fcd1d9a",
      "title": "The Duck"
    },
    "generator": "Sketchfab-15.30.0",
    "version": "2.0"
  },
  "bufferViews": [
    {
      "buffer": 0,
      "byteLength": 481872,
      "name": "floatBufferViews",
      "target": 34963
    },
    {
      "buffer": 0,
      "byteLength": 167992,
      "byteOffset": 481872,
      "byteStride": 8,
      "name": "floatBufferViews",
      "target": 34962
    },
    {
      "buffer": 0,
      "byteLength": 503976,
      "byteOffset": 649864,
      "byteStride": 12,
      "name": "floatBufferViews",
      "target": 34962
    }
  ],
  "buffers": [
    {
      "byteLength": 1153840,
      "uri": "scene.bin"
    }
  ],
  "materials": [
    {
      "doubleSided": true,
      "name": "blinn1",
      "pbrMetallicRoughness": {
        "baseColorFactor": [
          1.0,
          0.384617,
          0.0,
          1.0
        ],
        "metallicFactor": 0.0,
        "roughnessFactor": 0.9207483816249483
      }
    },
    {
      "doubleSided": true,
      "name": "pasted__blinn10",
      "pbrMetallicRoughness": {
        "baseColorFactor": [
          0.0496894,
          0.0496894,
          0.0496894,
          1.0
        ],
        "metallicFactor": 0.0,
        "roughnessFactor": 0.9207483816249483
      }
    },
    {
      "doubleSided": true,
      "name": "lambert2",
      "pbrMetallicRoughness": {
        "metallicFactor": 0.0,
        "roughnessFactor": 0.6
      }
    }
  ],
  "meshes": [
    {
      "name": "pCube2_blinn1_0",
      "primitives": [
        {
          "attributes": {
            "NORMAL": 1,
            "POSITION": 0,
            "TEXCOORD_0": 2
          },
          "indices": 3,
          "material": 0,
          "mode": 4
        }
      ]
    },
    {
      "name": "pCube2_pasted__blinn10_0",
      "primitives": [
        {
          "attributes": {
            "NORMAL": 5,
            "POSITION": 4,
            "TEXCOORD_0": 6
          },
          "indices": 7,
          "material": 1,
          "mode": 4
        }
      ]
    },
    {
      "name": "pCube2_lambert2_0",
      "primitives": [
        {
          "attributes": {
            "NORMAL": 9,
            "POSITION": 8,
            "TEXCOORD_0": 10
          },
          "indices": 11,
          "material": 2,
          "mode": 4
        }
      ]
    }
  ],
  "nodes": [
    {
      "children": [
        1
      ],
      "matrix": [
        1.0,
        0.0,
        0.0,
        0.0,
        0.0,
        2.220446049250313e-16,
        -1.0,
        0.0,
        0.0,
        1.0,
        2.220446049250313e-16,
        0.0,
        0.0,
        0.0,
        0.0,
        1.0
      ],
      "name": "Sketchfab_model"
    },
    {
      "children": [
        2
      ],
      "matrix": [
        0.009999999776482582,
        0.0,
        0.0,
        0.0,
        0.0,
        0.0,
        0.009999999776482582,
        0.0,
        0.0,
        -0.009999999776482582,
        0.0,
        0.0,
        0.0,
        0.0,
        0.0,
        1.0
      ],
      "name": "4a2d2818fbcd40af8794fe2704441e9e.fbx"
    },
    {
      "children": [
        3
      ],
      "name": "RootNode"
    },
    {
      "children": [
        4,
        5,
        6
      ],
      "name": "pCube2"
    },
    {
      "mesh": 0,
      "name": "pCube2_blinn1_0"
    },
    {
      "mesh": 1,
      "name": "pCube2_pasted__blinn10_0"
    },
    {
      "mesh": 2,
      "name": "pCube2_lambert2_0"
    }
  ],
  "scene": 0,
  "scenes": [
    {
      "name": "Sketchfab_Scene",
      "nodes": [
        0
      ]
    }
  ]
}
