<?xml version="1.0" encoding="utf-8"?>
<!-- Generator: Adobe Illustrator 26.0.1, SVG Export Plug-In . SVG Version: 6.00 Build 0)  -->
<svg version="1.1" id="Layer_1" xmlns="http://www.w3.org/2000/svg" xmlns:xlink="http://www.w3.org/1999/xlink" x="0px" y="0px"
	 viewBox="0 0 240 240" style="enable-background:new 0 0 240 240;" xml:space="preserve">
<style type="text/css">
	.st0{filter:url(#Adobe_OpacityMaskFilter);}
	.st1{mask:url(#GrainShadow_00000114043879677329022010000005367102142962345150_);fill:#EACD5C;}
	.st2{filter:url(#Adobe_OpacityMaskFilter_00000048471439812091219850000014053242602397117617_);}
	.st3{mask:url(#GrainShadow_00000139988061928863235200000010746322257207653567_);fill:#EACD5C;}
	.st4{fill:url(#SVGID_1_);}
	.st5{filter:url(#Adobe_OpacityMaskFilter_00000129928087896783677310000002778008774352497855_);}
	
		.st6{mask:url(#SVGID_00000096020490498755451690000002514353927831444653_);fill:url(#SVGID_00000075153039320831567210000005490723694807746735_);}
</style>
<defs>
	<filter id="Adobe_OpacityMaskFilter" filterUnits="userSpaceOnUse" x="17.2" y="23.4" width="199" height="183.6">
		
			<feColorMatrix  type="matrix" values="-1 0 0 0 1  0 -1 0 0 1  0 0 -1 0 1  0 0 0 1 0" color-interpolation-filters="sRGB" result="source"/>
	</filter>
</defs>
<mask maskUnits="userSpaceOnUse" x="17.2" y="23.4" width="199" height="183.6" id="GrainShadow_00000152240820171760029870000011405381857262902168_">
	<g class="st0">
		<g>
			
				<image style="overflow:visible;" width="1300" height="1295" xlink:href="FA9CB4FB.png"  transform="matrix(0.24 0 0 0.24 -36 -34.8)">
			</image>
		</g>
	</g>
</mask>
<path id="GrainShadow" style="mask:url(#GrainShadow_00000152240820171760029870000011405381857262902168_);fill:#EACD5C;" d="
	M161.6,35.6c0.4,0,0.9,0,1.3,0c7.1,0.2,13.8-2.7,19-7.5c3.7-3.4,8.8-5.3,14.3-4.7c8.6,0.9,15.4,7.9,16.2,16.5c0.1,1.2,0.1,2.3,0,3.4
	c-1.1,11.3-0.6,22.6,2.2,33.6c1.1,4.2,1.6,8.7,1.6,13.2c0,18.6-9.3,35.1-23.6,44.9c-2,1.4-3.5,3.5-4.1,5.9
	c-9.4,37.9-43.6,65.9-84.4,65.9c-48,0-86.9-38.9-86.9-86.9c0-48,38.9-86.9,86.9-86.9l10.9,0.7c0,0,29.9,3.5,41.7,2.1L161.6,35.6z"/>
<defs>
	
		<filter id="Adobe_OpacityMaskFilter_00000093138552828731696650000014206048931987878816_" filterUnits="userSpaceOnUse" x="27.4" y="21.1" width="199" height="183.6">
		
			<feColorMatrix  type="matrix" values="-1 0 0 0 1  0 -1 0 0 1  0 0 -1 0 1  0 0 0 1 0" color-interpolation-filters="sRGB" result="source"/>
	</filter>
</defs>
<mask maskUnits="userSpaceOnUse" x="27.4" y="21.1" width="199" height="183.6" id="GrainShadow_00000094591850557439031230000011626129886972993157_">
	<g style="filter:url(#Adobe_OpacityMaskFilter_00000093138552828731696650000014206048931987878816_);">
		<g>
			
				<image style="overflow:visible;" width="1301" height="1295" xlink:href="FA9CB4FE.png"  transform="matrix(0.24 0 0 0.24 -25.9448 -37.0621)">
			</image>
		</g>
	</g>
</mask>
<path id="GrainShadow_00000175321788102001726790000012423219007009734828_" style="mask:url(#GrainShadow_00000094591850557439031230000011626129886972993157_);fill:#EACD5C;" d="
	M171.8,33.3c0.4,0,0.9,0,1.3,0c7.1,0.2,13.8-2.7,19-7.5c3.7-3.4,8.8-5.3,14.3-4.7c8.6,0.9,15.4,7.9,16.2,16.5c0.1,1.2,0.1,2.3,0,3.4
	c-1.1,11.3-0.6,22.6,2.2,33.6c1.1,4.2,1.6,8.7,1.6,13.2c0,18.6-9.3,35.1-23.6,44.9c-2,1.4-3.5,3.5-4.1,5.9
	c-9.4,37.9-43.6,65.9-84.4,65.9c-48,0-86.9-38.9-86.9-86.9c0-48,38.9-86.9,86.9-86.9l10.9,0.7c0,0,29.9,3.5,41.7,2.1L171.8,33.3z"/>
<radialGradient id="SVGID_1_" cx="114.0213" cy="-21.5532" r="244.2706" gradientUnits="userSpaceOnUse">
	<stop  offset="0.1375" style="stop-color:#EACD5C"/>
	<stop  offset="0.2955" style="stop-color:#EACE5F;stop-opacity:0.8169"/>
	<stop  offset="0.4307" style="stop-color:#ECD16A;stop-opacity:0.6601"/>
	<stop  offset="0.5576" style="stop-color:#EED77C;stop-opacity:0.5129"/>
	<stop  offset="0.6794" style="stop-color:#F1DE94;stop-opacity:0.3717"/>
	<stop  offset="0.7977" style="stop-color:#F5E8B5;stop-opacity:0.2345"/>
	<stop  offset="0.9116" style="stop-color:#FAF4DB;stop-opacity:0.1025"/>
	<stop  offset="1" style="stop-color:#FFFFFF;stop-opacity:0"/>
</radialGradient>
<path class="st4" d="M161.6,35.6c0.4,0,0.9,0,1.3,0c7.1,0.2,13.8-2.7,19-7.5c3.7-3.4,8.8-5.3,14.3-4.7c8.6,0.9,15.4,7.9,16.2,16.5
	c0.1,1.2,0.1,2.3,0,3.4c-1.1,11.3-0.6,22.6,2.2,33.6c1.1,4.2,1.6,8.7,1.6,13.2c0,18.6-9.3,35.1-23.6,44.9c-2,1.4-3.5,3.5-4.1,5.9
	c-9.4,37.9-43.6,65.9-84.4,65.9c-48,0-86.9-38.9-86.9-86.9c0-48,38.9-86.9,86.9-86.9l10.9,0.7c0,0,29.9,3.5,41.7,2.1L161.6,35.6z"/>
<defs>
	
		<filter id="Adobe_OpacityMaskFilter_00000135685968123806387630000012907190887622673553_" filterUnits="userSpaceOnUse" x="87.4" y="32" width="112.8" height="36.6">
		
			<feColorMatrix  type="matrix" values="-1 0 0 0 1  0 -1 0 0 1  0 0 -1 0 1  0 0 0 1 0" color-interpolation-filters="sRGB" result="source"/>
	</filter>
</defs>
<mask maskUnits="userSpaceOnUse" x="87.4" y="32" width="112.8" height="36.6" id="SVGID_00000106113767217872339030000004922417267146279326_">
	<g style="filter:url(#Adobe_OpacityMaskFilter_00000135685968123806387630000012907190887622673553_);">
		<g>
			
				<image style="overflow:visible;" width="955" height="691" xlink:href="FA9CB4FD.png"  transform="matrix(0.24 0 0 0.24 30.8119 -28.0953)">
			</image>
		</g>
	</g>
</mask>
<linearGradient id="SVGID_00000049908135761068828730000005308621485841108868_" gradientUnits="userSpaceOnUse" x1="149.0329" y1="28.4358" x2="134.9903" y2="70.3081">
	<stop  offset="0" style="stop-color:#EADECA"/>
	<stop  offset="0.2996" style="stop-color:#EBE0CD;stop-opacity:0.7004"/>
	<stop  offset="0.5561" style="stop-color:#F0E7D8;stop-opacity:0.4439"/>
	<stop  offset="0.7959" style="stop-color:#F6F2E9;stop-opacity:0.2041"/>
	<stop  offset="1" style="stop-color:#FFFFFF;stop-opacity:0"/>
</linearGradient>
<path style="mask:url(#SVGID_00000106113767217872339030000004922417267146279326_);fill:url(#SVGID_00000049908135761068828730000005308621485841108868_);" d="
	M97.3,38.4c5-1.9,9.9-0.1,11.9,0.5c17,5.7,55.8,11,70-1.8c1.6-1.4,4.5-4.6,9.1-5.1c4.8-0.6,10.9,1.9,11.9,5.2
	c1.9,6.7-15.9,20-32.7,26.2c-35.5,13-78.9-1.4-79.9-13.3C87.1,45.9,92.2,40.3,97.3,38.4z"/>
</svg>
