<?xml version="1.0" encoding="utf-8"?>
<!-- Generator: Adobe Illustrator 26.0.1, SVG Export Plug-In . SVG Version: 6.00 Build 0)  -->
<svg version="1.1" id="Layer_1" xmlns="http://www.w3.org/2000/svg" xmlns:xlink="http://www.w3.org/1999/xlink" x="0px" y="0px"
	 width="240px" height="240px" viewBox="0 0 240 240" style="enable-background:new 0 0 240 240;" xml:space="preserve">
<style type="text/css">
	.st0{filter:url(#Adobe_OpacityMaskFilter);}
	.st1{mask:url(#Grain_00000034769824702877244330000004409998550501800608_);fill:#EE9861;}
	.st2{fill:url(#SVGID_1_);}
	.st3{filter:url(#Adobe_OpacityMaskFilter_00000054967732891501622130000018077037896931335097_);}
	.st4{mask:url(#Grain_00000045591500546372902590000001470763076707820464_);fill:#EE9861;}
	.st5{filter:url(#Adobe_OpacityMaskFilter_00000075857881169421974520000004906927487983700386_);}
	.st6{mask:url(#Grain_00000031179646700310608640000005355267151318852512_);fill:#EE9861;}
	.st7{filter:url(#Adobe_OpacityMaskFilter_00000150781646220276640630000003170457819865466036_);}
	
		.st8{display:none;mask:url(#SVGID_00000034777648673814862510000005096258830971061399_);fill:url(#SVGID_00000169522081460933838510000004158886319245323952_);}
</style>
<defs>
	<filter id="Adobe_OpacityMaskFilter" filterUnits="userSpaceOnUse" x="6" y="21.1" width="226.2" height="171.5">
		<feColorMatrix  type="matrix" values="1 0 0 0 0  0 1 0 0 0  0 0 1 0 0  0 0 0 1 0"/>
	</filter>
</defs>
<mask maskUnits="userSpaceOnUse" x="6" y="21.1" width="226.2" height="171.5" id="Grain_00000034769824702877244330000004409998550501800608_">
	<g class="st0">
		<g>
			
				<image style="overflow:visible;enable-background:new    ;" width="1300" height="1304" xlink:href="408E60B1.png"  transform="matrix(0.2397 0 0 0.2397 -35.8201 -40.7396)">
			</image>
		</g>
	</g>
</mask>
<path id="Grain" class="st1" d="M232.2,140.7c-0.1,28.5-23.5,51.9-52,51.9c-7.7,0-15-1.6-21.5-4.6c-5.3-2.4-11-3.8-16.8-3.7
	c-0.5,0-1,0-1.5,0c-11.6,0-22.1-2.5-30.3-6.8c-4.8-2.5-10.2-3.3-15.5-2.5c-3.7,0.5-7.5,0.8-11.3,0.8C40,175.8,4.9,140.2,6,96.6
	c1-41.2,34.7-74.7,75.8-75.5c14.8-0.3,28.9,3.8,41.6,11.3c2.8,1.6,5.5,3.4,8,5.4c5.1,3.9,9.7,8.4,13.2,13.8
	c3.6,5.5,7.8,11.2,12.5,15.8c8.7,8.6,20.1,13.5,31,18.4c10.3,4.7,20.8,9.7,28.9,17.8c1.3,1.3,2.6,2.7,3.7,4.2
	c0.6,0.7,1.1,1.4,1.7,2.2C228.8,118.9,232.3,129.7,232.2,140.7z"/>
<linearGradient id="SVGID_1_" gradientUnits="userSpaceOnUse" x1="132.3743" y1="198.418" x2="106.2695" y2="47.4487" gradientTransform="matrix(1 0 0 -1 0 240)">
	<stop  offset="0.2888" style="stop-color:#EE9861"/>
	<stop  offset="0.4715" style="stop-color:#EE9A64;stop-opacity:0.7431"/>
	<stop  offset="0.5846" style="stop-color:#EF9F6C;stop-opacity:0.5841"/>
	<stop  offset="0.6788" style="stop-color:#F1A97B;stop-opacity:0.4516"/>
	<stop  offset="0.7626" style="stop-color:#F3B68F;stop-opacity:0.3339"/>
	<stop  offset="0.8394" style="stop-color:#F6C7AA;stop-opacity:0.2258"/>
	<stop  offset="0.9112" style="stop-color:#F9DDCB;stop-opacity:0.1248"/>
	<stop  offset="0.9779" style="stop-color:#FDF6F1;stop-opacity:3.105044e-02"/>
	<stop  offset="1" style="stop-color:#FFFFFF;stop-opacity:0"/>
</linearGradient>
<path class="st2" d="M232.2,140.7c-0.1,28.5-23.5,51.9-52,51.9c-7.7,0-15-1.6-21.5-4.6c-5.3-2.4-11-3.8-16.8-3.7c-0.5,0-1,0-1.5,0
	c-11.6,0-22.1-2.5-30.3-6.8c-4.8-2.5-10.2-3.3-15.5-2.5c-3.7,0.5-7.5,0.8-11.3,0.8C40,175.8,4.9,140.2,6,96.6
	c1-41.2,34.7-74.7,75.8-75.5c14.8-0.3,28.9,3.8,41.6,11.3c2.8,1.6,5.5,3.4,8,5.4c5.1,3.9,9.7,8.4,13.2,13.8
	c3.6,5.5,7.8,11.2,12.5,15.8c8.7,8.6,20.1,13.5,31,18.4c10.3,4.7,20.8,9.7,28.9,17.8c1.3,1.3,2.6,2.7,3.7,4.2
	c0.6,0.7,1.1,1.4,1.7,2.2C228.8,118.9,232.3,129.7,232.2,140.7z"/>
<defs>
	
		<filter id="Adobe_OpacityMaskFilter_00000010297082654978455450000011327638534222141576_" filterUnits="userSpaceOnUse" x="13.9" y="16.7" width="226.2" height="171.5">
		
			<feColorMatrix  type="matrix" values="-1 0 0 0 1  0 -1 0 0 1  0 0 -1 0 1  0 0 0 1 0" color-interpolation-filters="sRGB" result="source"/>
	</filter>
</defs>
<mask maskUnits="userSpaceOnUse" x="13.9" y="16.7" width="226.2" height="171.5" id="Grain_00000045591500546372902590000001470763076707820464_">
	<g style="filter:url(#Adobe_OpacityMaskFilter_00000010297082654978455450000011327638534222141576_);">
		<g>
			
				<image style="overflow:visible;enable-background:new    ;" width="1304" height="1304" xlink:href="408E60B3.png"  transform="matrix(0.2394 0 0 0.2394 -28.24 -44.96)">
			</image>
		</g>
	</g>
</mask>
<path id="Grain_00000070101422010086749820000008075624835624708756_" class="st4" d="M240.1,136.3c-0.1,28.5-23.5,51.9-52,51.9
	c-7.7,0-15-1.6-21.5-4.6c-5.3-2.4-11-3.8-16.8-3.7c-0.5,0-1,0-1.5,0c-11.6,0-22.1-2.5-30.3-6.8c-4.8-2.5-10.2-3.3-15.5-2.5
	c-3.7,0.5-7.5,0.8-11.3,0.8c-43.3,0-78.4-35.6-77.3-79.2c1-41.2,34.7-74.7,75.8-75.5c14.8-0.3,28.9,3.8,41.6,11.3
	c2.8,1.6,5.5,3.4,8,5.4c5.1,3.9,9.7,8.4,13.2,13.8c3.6,5.5,7.8,11.2,12.5,15.8c8.7,8.6,20.1,13.5,31,18.4
	c10.3,4.7,20.8,9.7,28.9,17.8c1.3,1.3,2.6,2.7,3.7,4.2c0.6,0.7,1.1,1.4,1.7,2.2C236.7,114.5,240.2,125.4,240.1,136.3z"/>
<defs>
	
		<filter id="Adobe_OpacityMaskFilter_00000063594374315195497670000002593466488284828563_" filterUnits="userSpaceOnUse" x="8.2" y="26.6" width="226.2" height="171.5">
		
			<feColorMatrix  type="matrix" values="-1 0 0 0 1  0 -1 0 0 1  0 0 -1 0 1  0 0 0 1 0" color-interpolation-filters="sRGB" result="source"/>
	</filter>
</defs>
<mask maskUnits="userSpaceOnUse" x="8.2" y="26.6" width="226.2" height="171.5" id="Grain_00000031179646700310608640000005355267151318852512_">
	<g style="filter:url(#Adobe_OpacityMaskFilter_00000063594374315195497670000002593466488284828563_);">
		<g>
			
				<image style="overflow:visible;enable-background:new    ;" width="1304" height="1304" xlink:href="408E60B3.png"  transform="matrix(0.2394 0 0 0.2394 -33.9446 -35.0451)">
			</image>
		</g>
	</g>
</mask>
<path id="Grain_00000160188607057181698980000009855563727635211430_" class="st6" d="M234.4,146.2c-0.1,28.5-23.5,51.9-52,51.9
	c-7.7,0-15-1.6-21.5-4.6c-5.3-2.4-11-3.8-16.8-3.7c-0.5,0-1,0-1.5,0c-11.6,0-22.1-2.5-30.3-6.8c-4.8-2.5-10.2-3.3-15.5-2.5
	c-3.7,0.5-7.5,0.8-11.3,0.8c-43.3,0-78.4-35.6-77.3-79.2c1-41.2,34.7-74.7,75.8-75.5c14.8-0.3,28.9,3.8,41.6,11.3
	c2.8,1.6,5.5,3.4,8,5.4c5.1,3.9,9.7,8.4,13.2,13.8c3.6,5.5,7.8,11.2,12.5,15.8c8.7,8.6,20.1,13.5,31,18.4
	c10.3,4.7,20.8,9.7,28.9,17.8c1.3,1.3,2.6,2.7,3.7,4.2c0.6,0.7,1.1,1.4,1.7,2.2C231,124.4,234.5,135.3,234.4,146.2z"/>
<defs>
	
		<filter id="Adobe_OpacityMaskFilter_00000060007735629881785940000001004111147900149913_" filterUnits="userSpaceOnUse" x="60.2" y="26.2" width="77.5" height="44.9">
		<feColorMatrix  type="matrix" values="1 0 0 0 0  0 1 0 0 0  0 0 1 0 0  0 0 0 1 0"/>
	</filter>
</defs>
<mask maskUnits="userSpaceOnUse" x="60.2" y="26.2" width="77.5" height="44.9" id="SVGID_00000034777648673814862510000005096258830971061399_">
	<g style="filter:url(#Adobe_OpacityMaskFilter_00000060007735629881785940000001004111147900149913_);">
		<g>
			
				<image style="overflow:visible;enable-background:new    ;" width="758" height="608" xlink:href="408E60B6.png"  transform="matrix(0.2381 0 0 0.2381 13.9016 -21.3972)">
			</image>
		</g>
	</g>
</mask>
<linearGradient id="SVGID_00000160186075470448752140000006320029948751490699_" gradientUnits="userSpaceOnUse" x1="111.3112" y1="207.5363" x2="91.566" y2="173.3908" gradientTransform="matrix(1 0 0 -1 0 240)">
	<stop  offset="0" style="stop-color:#EE9861"/>
	<stop  offset="0.1479" style="stop-color:#F1AA7C;stop-opacity:0.8521"/>
	<stop  offset="0.5564" style="stop-color:#F8D7C2;stop-opacity:0.4436"/>
	<stop  offset="0.851" style="stop-color:#FDF4EE;stop-opacity:0.149"/>
	<stop  offset="1" style="stop-color:#FFFFFF;stop-opacity:0"/>
</linearGradient>
<path style="display:none;mask:url(#SVGID_00000034777648673814862510000005096258830971061399_);fill:url(#SVGID_00000160186075470448752140000006320029948751490699_);" d="
	M67.3,31.3c15.8-12.2,52.4-1.5,65.8,21.3c1.6,2.8,6.9,11.8,3.6,16.5c-2.9,4.1-15.7,1.5-41.3-4c-6.1-1.3-14.6-3.2-23.8-8.9
	C66.4,53,60.9,49.5,60.3,44C59.5,37.4,66.5,31.9,67.3,31.3z"/>
</svg>
