<?xml version="1.0" encoding="utf-8"?>
<!-- Generator: Adobe Illustrator 26.0.1, SVG Export Plug-In . SVG Version: 6.00 Build 0)  -->
<svg version="1.1" id="Layer_1" xmlns="http://www.w3.org/2000/svg" xmlns:xlink="http://www.w3.org/1999/xlink" x="0px" y="0px"
	 width="98px" height="98px" viewBox="0 0 98 98" enable-background="new 0 0 98 98" xml:space="preserve">
<g>
	<path fill="#EADECA" d="M81.14397,97.72971H17.06391c-9.22814,0-16.70902-7.48088-16.70902-16.70902V16.94063
		c0-9.22814,7.48089-16.70903,16.70902-16.70903h64.08006c9.22814,0,16.70903,7.48089,16.70903,16.70903v64.08006
		C97.853,90.24883,90.37211,97.72971,81.14397,97.72971z M19.57014,41.61967c-0.04066,0.00907-0.07058,0.04409-0.0728,0.0857
		c-0.00788,0.1475-0.01619,0.29515-0.02287,0.44286c-0.05233,1.15596-0.10587,2.31187-0.15582,3.46793
		c-0.07048,1.63114-0.18361,3.262-0.19825,4.8937c-0.03811,4.24821-0.04528,8.49682-0.04013,12.74524
		c0.00391,3.21978,0.14702,6.4336,0.58643,9.62757c0.21408,1.55607,0.50932,3.09544,1.0452,4.57847
		c0.28671,0.79343,0.64205,1.55127,1.17322,2.21687c0.16402,0.20555,0.34497,0.34372,0.62218,0.38712
		c1.67362,0.26202,3.33843,0.58907,5.01777,0.80379c3.19295,0.40823,6.4048,0.64001,9.62015,0.75183
		c3.96009,0.13773,7.92297,0.23479,11.88519,0.25895c3.24875,0.01982,6.49894-0.06877,9.74726-0.15555
		c1.996-0.05332,3.99183-0.16306,5.98378-0.30356c1.97543-0.13932,3.94791-0.32942,5.91792-0.53365
		c1.7333-0.1797,3.45455-0.4492,5.16041-0.81521c0.28973-0.06216,0.48473-0.1991,0.6571-0.41712
		c0.48748-0.61655,0.82743-1.31228,1.099-2.04314c0.68964-1.85596,1.00233-3.795,1.23302-5.74866
		c0.31448-2.66333,0.43356-5.34059,0.45482-8.01955c0.02225-2.8053-0.05441-5.61142-0.02866-8.41664
		c0.04004-4.3621-0.16293-8.71606-0.35155-13.07112c-0.00935-0.21572-0.02978-0.43096-0.0472-0.64683
		c-0.00424-0.05257-0.05151-0.09136-0.10381-0.08449c-0.34151,0.04485-0.64039,0.10389-0.93941,0.10468
		c-0.73331,0.00195-1.45297-0.12489-2.14845-0.35537c-1.60147-0.53071-2.98363-1.38058-3.98876-2.77458
		c-0.22459-0.31148-0.47303-0.60576-0.73506-0.93308c-0.03746-0.04679-0.10915-0.04653-0.14603,0.00071
		c-0.12873,0.16487-0.23414,0.30116-0.34198,0.43551c-0.34702,0.43238-0.65759,0.90208-1.05015,1.28838
		c-1.42255,1.39988-3.15269,2.19176-5.13949,2.28827c-3.16753,0.15387-5.6543-1.1247-7.43967-3.75257
		c-0.06614-0.09735-0.13592-0.19224-0.20044-0.28324c-0.04797,0.02609-0.06668,0.03008-0.07462,0.04154
		c-0.07186,0.10377-0.14297,0.20808-0.21218,0.31363c-1.01622,1.54981-2.39436,2.64241-4.1369,3.27459
		c-1.19866,0.43486-2.43999,0.53276-3.70049,0.45292c-2.82416-0.17889-4.99353-1.47984-6.54244-3.83628
		c-0.04077-0.06202-0.08368-0.12262-0.13707-0.19848c-0.03563-0.05062-0.11043-0.05267-0.14888-0.00415
		c-0.10917,0.13776-0.20339,0.25724-0.29896,0.37565c-0.36806,0.45601-0.69645,0.9528-1.11278,1.3595
		c-1.40226,1.36981-3.10696,2.14931-5.05724,2.25414c-3.18571,0.17124-5.69032-1.10377-7.48869-3.74747
		c-0.05038-0.07407-0.10188-0.14737-0.16585-0.2388c-0.03546-0.05067-0.10988-0.05241-0.14822-0.00388
		c-0.25073,0.3174-0.48799,0.60317-0.70297,0.90482c-0.87646,1.2298-2.06583,2.05062-3.45232,2.5822
		c-1.14602,0.43937-2.32649,0.74424-3.57296,0.43692C19.64277,41.60294,19.61155,41.61044,19.57014,41.61967z M70.59461,33.48281
		c0.02148-0.09578,0.15826-0.09447,0.179,0.00148c0.35336,1.63433,1.16557,2.9989,2.46249,4.0884
		c1.99723,1.6778,5.15137,2.45028,7.82639,0.74404c2.3355-1.48968,3.66687-3.5849,3.69359-6.41521
		c0.00807-0.85588-0.0114-1.71218,0.00681-2.56775c0.00979-0.45966-0.08398-0.88552-0.31619-1.27275
		c-0.3256-0.54295-0.65009-1.08955-1.01908-1.60294c-1.1867-1.65109-2.53641-3.1654-3.95814-4.61598
		c-1.13261-1.15559-2.30418-2.26777-3.61689-3.22276c-0.26709-0.1943-0.54123-0.29346-0.8752-0.30317
		c-3.08932-0.08982-6.17784-0.21176-9.26752-0.28432c-3.51754-0.08262-7.03598-0.17036-10.55412-0.17348
		c-6.14981-0.00545-12.30013,0.01646-18.44936,0.09567c-4.1358,0.05327-8.27003,0.22699-12.40508,0.34249
		c-1.4847,0.04147-1.49371,0.02505-2.64589,0.984c-2.30002,1.91428-4.33369,4.08835-6.16848,6.44658
		c-0.54327,0.69825-1.01779,1.45185-1.49722,2.19721c-0.29634,0.46072-0.42535,0.97582-0.40625,1.53782
		c0.02637,0.77581,0.00405,1.55319,0.00717,2.32989c0.01094,2.7199,1.21627,4.80688,3.41633,6.33775
		c1.2057,0.83897,2.54745,1.22662,4.03848,1.11701c3.2028-0.23545,5.95095-2.67551,6.5264-5.83601l0,0
		c0.01812-0.09874,0.15873-0.10101,0.17978-0.00285c0.23155,1.07959,0.64444,2.07356,1.33066,2.94329
		c1.76507,2.23708,4.08188,3.25111,6.90194,2.8141c2.94177-0.45588,5.16077-2.78186,5.66749-5.72721
		c0.00611-0.03549,0.01327-0.0708,0.02144-0.10732c0.02156-0.09636,0.15972-0.09596,0.17988,0.0007
		c0.71333,3.42006,3.51731,5.5026,6.34438,5.87446c1.63375,0.2149,3.19361-0.07203,4.63342-0.88866
		c1.92749-1.09323,3.16305-2.69596,3.66983-4.82128c0.02255-0.09457,0.15816-0.09226,0.17884,0.00274
		c0.84185,3.86801,3.95697,5.73351,6.57991,5.76898c1.5868,0.02146,3.04104-0.38759,4.34179-1.29682
		C69.19646,36.8558,70.17594,35.34933,70.59461,33.48281z"/>
	<path fill="#EADECA" d="M60.08172,65.92924c-7.33642,1.16138-14.64525,1.14854-21.97899,0.00246
		c-0.04808-0.00751-0.09341,0.02438-0.10327,0.07202c-0.0214,0.10342-0.04255,0.18452-0.04169,0.26538
		c0.03419,3.2339-2.04467,6.6337-5.85225,7.97913c-1.39586,0.49323-2.83491,0.66652-4.304,0.58446
		c-0.74143-0.04142-1.49236-0.0836-2.21612-0.23486c-1.49973-0.31345-2.30287-1.26163-2.50724-2.78726
		c-0.16708-1.24731-0.02917-2.47849,0.26621-3.67922c0.49169-1.99873,1.04924-3.98174,1.60409-5.96437
		c0.73431-2.62387,1.46789-5.24842,2.24854-7.8587c0.63968-2.1389,1.57675-4.14449,2.92883-5.93797
		c0.49833-0.66101,1.06538-1.25717,1.71582-1.77205c1.1976-0.94801,2.54826-1.47424,4.08679-1.42268
		c0.88493,0.02966,1.7793,0.05176,2.64911,0.19799c1.53895,0.25874,2.78955,1.10062,3.86055,2.19837
		c0.33264,0.34095,0.65907,0.45292,1.12146,0.42c1.75497-0.12497,3.51182-0.22792,5.26932-0.31026
		c0.59942-0.02808,1.20351,0.01632,1.80427,0.0493c1.50361,0.08257,3.00694,0.17167,4.50936,0.27332
		c0.25167,0.01703,0.4033-0.08488,0.57974-0.23972c0.55868-0.49026,1.10995-0.99718,1.71671-1.42261
		c1.03641-0.72667,2.21986-1.06525,3.48106-1.12747c0.47489-0.02343,0.95057-0.03103,1.42591-0.04498
		c1.73785-0.05099,3.22003,0.5733,4.50872,1.70794c0.98697,0.86898,1.75957,1.90906,2.41213,3.0421
		c0.97849,1.69896,1.6735,3.51023,2.19923,5.39836c1.05375,3.78455,2.15369,7.55622,3.21574,11.33849
		c0.3689,1.31379,0.63393,2.65112,0.65738,4.02437c0.01032,0.60415-0.02551,1.20226-0.19418,1.78879
		c-0.28409,0.98785-0.90113,1.66615-1.8764,1.98434c-0.43364,0.14147-0.88799,0.25224-1.34079,0.29659
		c-2.08541,0.2042-4.15376,0.17095-6.12147-0.67683c-3.01956-1.30099-4.86302-3.56179-5.47488-6.80238
		c-0.07389-0.39133-0.09567-0.79249-0.14468-1.2613C60.18131,65.95815,60.13324,65.92109,60.08172,65.92924z M49.22785,52.09813
		c-0.03346-0.02717-0.08128-0.02626-0.1148,0.00083c-0.05644,0.0456-0.10316,0.08199-0.14465,0.1236
		c-1.62125,1.62601-3.2598,3.23536-4.85379,4.8877c-0.71273,0.73882-1.33842,1.56197-1.99689,2.35244
		c-0.09,0.10805-0.15982,0.23291-0.2562,0.39285c-0.03749,0.06222,0.00968,0.14143,0.08226,0.13848
		c1.3432-0.05459,2.59969-0.10565,3.89896-0.15845c0.05183-0.00211,0.09531,0.03933,0.09531,0.0912v3.38613
		c0,0.05042,0.04087,0.09129,0.09129,0.09129h6.30013c0.05042,0,0.09129-0.04087,0.09129-0.09129v-3.38644
		c0-0.05187,0.04351-0.09331,0.09534-0.0912c1.30629,0.05315,2.56831,0.1045,3.84333,0.15638
		c0.07009,0.00285,0.11686-0.07053,0.08511-0.13308C55.80661,58.60189,51.40839,53.86858,49.22785,52.09813z"/>
</g>
</svg>
